<svg width="22" height="24" viewBox="0 0 22 24" fill="none" xmlns="http://www.w3.org/2000/svg">
<path d="M13.1327 22.9014C12.8801 23.7925 11.9261 24 11 24C10.074 24 9.11988 23.7925 8.86738 22.9014C8.49195 21.5688 7.85714 18.2296 7.85714 16.6758C7.85714 15.0278 9.38644 14.625 11 14.625C12.6136 14.625 14.1429 15.0278 14.1429 16.6758C14.1429 18.2203 13.5108 21.5592 13.1327 22.9014ZM7.70329 13.526C6.78533 12.6678 6.23214 11.4554 6.28979 10.1229C6.39066 7.79208 8.37169 5.9062 10.8137 5.81597C13.4977 5.71678 15.7143 7.7722 15.7143 10.3125C15.7143 11.57 15.171 12.7086 14.2968 13.5259C14.1654 13.6487 14.1789 13.8533 14.3276 13.9565C14.7849 14.2736 15.1359 14.6757 15.3703 15.1454C15.4558 15.3167 15.6894 15.3638 15.8344 15.234C17.2499 13.9664 18.1204 12.1505 18.0693 10.1451C17.9782 6.57291 14.9463 3.66656 11.2044 3.56527C7.21232 3.45717 3.92857 6.5257 3.92857 10.3125C3.92857 12.2513 4.78952 14.0016 6.1654 15.2339C6.31042 15.3638 6.54407 15.3168 6.62961 15.1454C6.86405 14.6757 7.21512 14.2736 7.6724 13.9565C7.82115 13.8534 7.83465 13.6487 7.70329 13.526V13.526ZM11 0C4.92073 0 0 4.69617 0 10.5C0 14.7184 2.58313 18.2647 6.17468 19.941C6.38746 20.0403 6.62976 19.8686 6.59381 19.6452C6.47684 18.9181 6.38059 18.1946 6.32834 17.5668C6.32117 17.4808 6.27192 17.4034 6.19683 17.3553C3.86915 15.8644 2.33878 13.3233 2.35729 10.4484C2.38636 5.93733 6.251 2.26181 10.977 2.25005C15.7532 2.23814 19.6429 5.94361 19.6429 10.5C19.6429 13.4031 18.0637 15.9605 15.6824 17.4313C15.6333 18.0893 15.5317 18.8651 15.4062 19.6452C15.3702 19.8686 15.6126 20.0403 15.8253 19.941C19.4085 18.2685 22 14.7275 22 10.5C22 4.69711 17.0802 0 11 0ZM11 7.5C9.26426 7.5 7.85714 8.84316 7.85714 10.5C7.85714 12.1568 9.26426 13.5 11 13.5C12.7357 13.5 14.1429 12.1568 14.1429 10.5C14.1429 8.84316 12.7357 7.5 11 7.5Z" fill="black"/>
</svg>
